<?xml version="1.0" encoding="UTF-8"?>
<!-- Generator: visioncortex VTracer 0.6.3 -->
<svg version="1.1" xmlns="http://www.w3.org/2000/svg" width="1200" height="1525">
<path d="M0 0 C-1.58 3.89 -4.24 6.48 -7.2 9.36 C-7.97 10.12 -7.97 10.12 -8.75 10.9 C-10.39 12.52 -12.04 14.14 -13.69 15.75 C-15.84 17.87 -17.99 19.99 -20.14 22.11 C-20.91 22.88 -20.91 22.88 -21.7 23.66 C-25.17 27.11 -28.45 30.68 -31.62 34.4 C-33.32 36.37 -35.13 38.19 -37 40 C-40.15 43.1 -43.07 46.32 -45.95 49.67 C-48.58 52.66 -51.29 55.58 -54 58.5 C-58.42 63.27 -62.77 68.07 -67 73 C-67.42 73.49 -67.83 73.97 -68.26 74.47 C-70.79 77.41 -73.3 80.35 -75.82 83.29 C-77.89 85.71 -79.97 88.12 -82.05 90.52 C-88.48 97.93 -94.64 105.5 -100.64 113.25 C-102.91 116.18 -105.21 119.09 -107.5 122 C-108.42 123.18 -109.35 124.35 -110.27 125.53 C-112.03 127.77 -113.8 130.01 -115.57 132.25 C-127.61 147.47 -139.4 162.85 -150.47 178.79 C-152.12 181.18 -153.79 183.56 -155.46 185.94 C-170.48 207.32 -185.18 228.83 -199 251 C-199.61 251.98 -200.22 252.96 -200.85 253.97 C-210.28 269.09 -219.41 284.37 -228.21 299.86 C-229.9 302.83 -231.61 305.79 -233.31 308.75 C-249.9 337.73 -264.83 367.77 -279 398 C-279.55 399.16 -280.09 400.32 -280.65 401.51 C-301.37 445.67 -318.26 491.57 -333.33 537.93 C-333.96 539.87 -334.59 541.8 -335.23 543.74 C-364.5 633.52 -381.01 729.97 -343 1067 C-332.01 1088.59 -317.74 1108.52 -301 1126 C-300.52 1126.5 -300.05 1127.01 -299.55 1127.53 C-282.12 1145.89 -259.35 1161.48 -235 1169 C-235.59 1170.85 -235.59 1170.85 -237 1173 C-245.79 1177.08 -255.94 1178.75 -265.38 1180.69 C-266.84 1180.99 -266.84 1180.99 -268.34 1181.3 C-284.16 1184.39 -299.82 1185.35 -315.91 1185.32 C-318.87 1185.31 -321.82 1185.34 -324.77 1185.36 C-340.75 1185.41 -356.51 1183.98 -371.94 1179.62 C-372.72 1179.41 -373.5 1179.2 -374.3 1178.98 C-412.49 1168.22 -446.17 1142.8 -465.75 1108.12 C-467.21 1105.44 -468.61 1102.73 -470 1100 C-470.38 1099.27 -470.75 1098.54 -471.14 1097.79 C-485.05 1070.58 -491.75 1041.09 -496 1011 C-496.22 1009.54 -496.43 1008.07 -496.65 1006.61 C-499.24 987.93 -499.18 969.01 -499.12 950.19 C-499.12 948.6 -499.12 948.6 -499.12 946.98 C-498.89 853.34 -479.39 760.16 -440.38 621.25 C-440.01 620.05 -439.65 618.85 -439.28 617.61 C-433.05 596.96 -426.74 576.74 -417.31 557.31 C-416.6 555.83 -415.89 554.35 -415.19 552.87 C-413.78 549.93 -412.37 546.99 -410.95 544.05 C-409.25 540.52 -407.57 536.99 -405.89 533.45 C-394.9 510.28 -383.52 487.24 -371.4 464.63 C-370.03 462.06 -368.67 459.48 -367.31 456.89 C-359.7 442.43 -351.88 428.13 -343.56 414.05 C-340 408.02 -336.53 401.94 -333.08 395.85 C-322.76 377.69 -312.03 359.79 -301 342.06 C-300.1 340.62 -300.1 340.62 -299.19 339.14 C-295.82 333.77 -292.3 328.55 -288.64 323.37 C-286.18 319.81 -283.96 316.1 -281.75 312.38 C-276.91 304.35 -271.74 296.63 -266.37 288.96 C-264.54 286.34 -262.73 283.7 -260.93 281.06 C-250.83 266.3 -240.43 251.78 -229.79 237.42 C-228 235.01 -226.23 232.59 -224.46 230.17 C-210.56 211.23 -196.3 192.66 -181.03 174.8 C-177.72 170.91 -174.56 166.91 -171.44 162.88 C-167.32 157.56 -162.96 152.55 -158.38 147.62 C-156.1 145.11 -153.98 142.53 -151.88 139.88 C-142.47 128.25 -131.8 117.62 -121.14 107.17 C-118.25 104.32 -115.48 101.44 -112.84 98.35 C-108.23 93.02 -103.22 88.07 -98.23 83.1 C-96.57 81.44 -94.91 79.78 -93.25 78.11 C-88.18 73.04 -83.08 68.06 -77.62 63.4 C-75.47 61.54 -73.48 59.54 -71.5 57.5 C-67.49 53.45 -63.32 49.71 -59 46 C-57.9 45.03 -56.79 44.07 -55.69 43.1 C-43.52 32.42 -30.91 22.39 -18.02 12.6 C-13.19 8.93 -8.45 5.17 -3.79 1.29 C-2 0 -2 0 0 0 Z " fill="#DD2118" transform="translate(551,98)"/>
<path d="M0 0 C0.88 -0 1.76 -0 2.67 -0 C17.57 0.02 32.09 0.85 46.81 3.25 C47.9 3.42 48.99 3.59 50.12 3.77 C85.79 9.5 127.37 19.26 156.81 41.25 C157.6 41.83 158.39 42.41 159.2 43 C211.13 82.81 233.38 145.11 242.06 208.06 C252.95 292.89 242.07 380.28 216.81 492.25 C216.63 492.99 216.45 493.73 216.27 494.49 C204.13 544.27 189.48 593.9 169.81 641.25 C169.15 642.87 169.15 642.87 168.47 644.53 C161.84 660.73 154.61 676.58 146.81 692.25 C146.36 693.17 145.91 694.08 145.44 695.02 C135.62 714.74 135.62 714.74 128.81 721.25 C127.82 721.58 126.83 721.91 125.81 722.25 C128.19 713.95 130.95 705.78 133.71 697.6 C143.38 668.84 151.72 639.9 159.42 610.56 C160.33 607.1 161.24 603.63 162.17 600.18 C164.75 590.53 167.13 580.89 169.19 571.12 C169.4 570.1 169.4 570.1 169.62 569.06 C181.88 510.63 188.77 451.22 188.94 391.5 C188.94 390.83 188.94 390.15 188.95 389.46 C188.95 387.54 188.95 385.62 188.95 383.7 C188.94 382.6 188.94 381.5 188.94 380.36 C188.81 377.25 188.36 374.32 187.81 371.25 C187.72 369.26 187.63 367.28 187.57 365.29 C185.15 287.65 158.47 205.45 100.81 151.25 C92.87 144.07 84.42 137.61 75.81 131.25 C75.22 130.81 74.62 130.37 74.01 129.91 C44.63 108.42 8.92 95.15 -27.19 91.25 C-28.13 91.14 -29.07 91.03 -30.05 90.91 C-77.76 86.24 -125.66 97.08 -169.19 116.25 C-170.63 116.88 -170.63 116.88 -172.1 117.53 C-193.4 126.93 -213.97 137.49 -233.77 149.75 C-236.2 151.26 -238.65 152.75 -241.09 154.25 C-250.82 160.25 -260.03 166.69 -269.08 173.65 C-272.95 176.59 -276.89 179.44 -280.81 182.31 C-292.25 190.71 -303.34 199.43 -314.12 208.65 C-316.86 210.99 -319.68 213.25 -322.5 215.5 C-328.03 219.99 -333.19 224.85 -338.35 229.76 C-341.58 232.83 -344.83 235.83 -348.21 238.74 C-352.23 242.23 -355.96 245.95 -359.69 249.75 C-364.11 254.22 -368.55 258.55 -373.37 262.6 C-375.19 264.25 -376.74 265.98 -378.32 267.86 C-382.49 272.68 -387.01 277.1 -391.56 281.56 C-397.44 287.37 -402.98 293.15 -408.06 299.67 C-410.75 302.93 -413.65 305.94 -416.62 308.94 C-417.15 309.47 -417.67 310 -418.2 310.54 C-421.94 314.25 -421.94 314.25 -424.19 314.25 C-422.8 309.71 -420.98 305.57 -418.74 301.4 C-418.22 300.43 -418.22 300.43 -417.69 299.44 C-413.39 291.59 -408.39 284.22 -403.38 276.81 C-402.44 275.43 -401.51 274.04 -400.58 272.65 C-383.15 246.69 -383.15 246.69 -374.06 234.44 C-373.47 233.64 -372.88 232.83 -372.27 232.01 C-368.44 226.86 -364.51 221.84 -360.39 216.92 C-357.77 213.74 -355.23 210.5 -352.69 207.25 C-340.95 192.26 -328.65 177.79 -315.68 163.86 C-314.07 162.13 -312.47 160.39 -310.87 158.65 C-303.65 150.85 -296.26 143.22 -288.75 135.69 C-287.92 134.85 -287.09 134.02 -286.24 133.16 C-281.94 128.88 -277.57 124.74 -272.96 120.78 C-270.55 118.7 -268.22 116.54 -265.88 114.38 C-261.36 110.26 -256.73 106.34 -251.97 102.51 C-249.19 100.25 -246.47 97.94 -243.75 95.62 C-224.9 79.91 -204.61 66.53 -183.68 53.78 C-181.48 52.43 -179.28 51.06 -177.09 49.69 C-133.65 22.95 -82.84 6.24 -32.19 1.25 C-31.24 1.16 -30.29 1.06 -29.31 0.96 C-19.55 0.1 -9.8 0.01 0 0 Z " fill="#DD2118" transform="translate(826.1875,-0.25)"/>
<path d="M0 0 C0.66 0 1.32 0 2 0 C2.2 20.35 2.38 40.7 2.55 61.05 C2.62 70.5 2.7 79.95 2.8 89.39 C2.88 97.63 2.95 105.87 3.01 114.1 C3.04 118.46 3.08 122.82 3.13 127.18 C3.18 131.29 3.21 135.4 3.23 139.5 C3.24 141.01 3.26 142.51 3.28 144.02 C3.47 158.03 3.47 158.03 0 164 C-0.38 164.68 -0.77 165.36 -1.16 166.06 C-1.54 166.62 -1.91 167.18 -2.29 167.77 C-4.29 170.86 -6.19 173.99 -8.05 177.17 C-13.78 186.97 -19.48 196.7 -26 206 C-26.37 206.53 -26.74 207.07 -27.13 207.62 C-33.43 216.67 -40.09 225.4 -47 234 C-47.74 234.92 -48.48 235.85 -49.24 236.8 C-65.97 257.47 -83.94 278.21 -104.24 295.46 C-106.08 297.07 -107.79 298.76 -109.5 300.5 C-113.16 304.21 -117.04 307.61 -121 311 C-122.09 311.94 -123.18 312.89 -124.27 313.83 C-133.51 321.8 -142.94 329.46 -152.63 336.87 C-155.83 339.32 -159.01 341.79 -162.16 344.29 C-171.97 352.05 -181.99 359.31 -192.39 366.25 C-195.18 368.12 -197.97 370 -200.76 371.88 C-235.31 395.09 -270.86 416.48 -307.94 435.43 C-310.06 436.52 -312.18 437.61 -314.29 438.7 C-390.68 478.19 -478.03 496.77 -562 471 C-590.5 461.76 -616.79 447.19 -641 429.69 C-641.94 429.01 -641.94 429.01 -642.89 428.32 C-644.3 427.27 -645.66 426.14 -647 425 C-647 424.34 -647 423.68 -647 423 C-647.81 422.64 -647.81 422.64 -648.64 422.28 C-651.63 420.66 -654.11 418.65 -656.75 416.5 C-657.73 415.71 -658.72 414.91 -659.73 414.09 C-660.48 413.4 -661.23 412.71 -662 412 C-662 411.34 -662 410.68 -662 410 C-662.88 409.61 -662.88 409.61 -663.77 409.21 C-670.81 405.38 -675.83 397.83 -680.75 391.7 C-683.93 387.89 -687.4 384.42 -691 381 C-690.34 380.34 -689.68 379.68 -689 379 C-687.89 380 -687.89 380 -686.75 381.02 C-678.08 388.67 -668.87 394.99 -659 401 C-658.09 401.56 -657.18 402.13 -656.25 402.71 C-639.15 412.67 -620.26 418.13 -601 422 C-600.17 422.18 -599.35 422.36 -598.5 422.54 C-532.57 436.41 -455.41 413.66 -397.26 383.16 C-394.56 381.77 -391.83 380.44 -389.1 379.11 C-373.98 371.72 -359.39 363.72 -345 355 C-343.88 354.32 -342.77 353.65 -341.62 352.95 C-327.13 344.16 -312.75 335.29 -299.09 325.25 C-295.4 322.56 -291.67 319.94 -287.94 317.31 C-269.17 304.09 -250.88 290.41 -233 276 C-230.58 274.06 -228.17 272.12 -225.75 270.19 C-224.79 269.42 -224.79 269.42 -223.82 268.64 C-220.65 266.11 -217.48 263.59 -214.28 261.1 C-208.12 256.32 -202.16 251.46 -196.42 246.17 C-193.89 243.9 -191.28 241.76 -188.62 239.62 C-183.48 235.46 -178.62 231.05 -173.77 226.55 C-171.54 224.5 -169.29 222.48 -167 220.5 C-162.7 216.77 -158.52 212.92 -154.33 209.07 C-152.28 207.17 -150.22 205.29 -148.15 203.41 C-139.48 195.52 -131.15 187.31 -122.88 179.01 C-120.61 176.74 -118.34 174.47 -116.07 172.2 C-114.6 170.73 -113.13 169.27 -111.66 167.8 C-111 167.13 -110.33 166.47 -109.64 165.78 C-105.77 161.89 -102.08 157.89 -98.49 153.73 C-96.58 151.51 -94.6 149.35 -92.62 147.19 C-88.73 142.87 -85.02 138.42 -81.37 133.89 C-79.32 131.39 -77.23 128.92 -75.11 126.46 C-68.06 118.24 -61.5 109.67 -55 101 C-54.27 100.04 -54.27 100.04 -53.53 99.05 C-33.59 72.6 -14.43 42.57 -4.84 10.67 C-3.66 6.75 -2.43 3.32 0 0 Z " fill="#DD2119" transform="translate(788,876)"/>
<path d="M0 0 C52.27 -0.05 104.53 -0.1 156.8 -0.13 C157.57 -0.13 158.35 -0.13 159.14 -0.13 C175.96 -0.14 192.77 -0.15 209.59 -0.15 C217.83 -0.16 226.08 -0.16 234.33 -0.16 C235.15 -0.17 235.97 -0.17 236.81 -0.17 C263.4 -0.18 290 -0.2 316.59 -0.23 C343.92 -0.26 371.25 -0.28 398.58 -0.28 C402.44 -0.28 406.3 -0.28 410.16 -0.28 C410.92 -0.28 411.68 -0.29 412.46 -0.29 C424.69 -0.29 436.92 -0.3 449.14 -0.32 C461.44 -0.34 473.74 -0.34 486.03 -0.34 C492.69 -0.34 499.35 -0.34 506.01 -0.36 C512.11 -0.37 518.21 -0.37 524.31 -0.36 C526.52 -0.36 528.72 -0.37 530.93 -0.37 C551.97 -0.46 551.97 -0.46 562 3 C563.67 3.53 563.67 3.53 565.38 4.07 C573.22 7.22 579.47 11.67 586 17 C586.74 17.57 587.48 18.15 588.24 18.74 C591.78 21.58 593.7 23.67 595 28 C595.24 31.3 595.24 31.3 595.23 35.09 C595.23 35.78 595.23 36.47 595.23 37.19 C595.23 39.46 595.21 41.74 595.2 44.02 C595.19 45.6 595.19 47.19 595.19 48.77 C595.18 52.93 595.16 57.1 595.14 61.26 C595.12 65.51 595.11 69.76 595.1 74.01 C595.08 82.34 595.04 90.67 595 99 C589.23 98.28 589.23 98.28 587.16 95.78 C586.61 94.84 586.06 93.9 585.5 92.94 C577.65 81.46 565.02 77.75 552 75 C551.3 74.82 550.59 74.65 549.87 74.46 C545.85 73.81 541.91 73.86 537.84 73.88 C536.91 73.88 535.98 73.87 535.03 73.87 C531.89 73.87 528.76 73.88 525.63 73.88 C523.37 73.88 521.11 73.88 518.85 73.88 C512.63 73.87 506.4 73.88 500.17 73.88 C494.15 73.89 488.14 73.89 482.12 73.89 C469.8 73.88 457.48 73.89 445.17 73.89 C432.97 73.9 420.78 73.9 408.58 73.91 C407.82 73.91 407.07 73.91 406.29 73.91 C402.44 73.91 398.59 73.91 394.74 73.91 C367.46 73.91 340.19 73.92 312.92 73.92 C286.42 73.93 259.93 73.94 233.43 73.95 C232.2 73.95 232.2 73.95 230.95 73.95 C222.75 73.95 214.55 73.95 206.35 73.95 C189.65 73.95 172.94 73.95 156.24 73.96 C155.47 73.96 154.7 73.96 153.91 73.96 C102.61 73.97 51.3 73.98 0 74 C0 49.58 0 25.16 0 0 Z " fill="#DD2219" transform="translate(0,1426)"/>
<path d="M0 0 C2.28 -0 4.56 -0 6.84 -0.01 C13.08 -0.01 19.32 -0 25.56 0.01 C31.61 0.02 37.66 0.02 43.7 0.02 C56.07 0.02 68.43 0.03 80.79 0.04 C93.02 0.06 105.26 0.07 117.49 0.08 C118.63 0.08 118.63 0.08 119.8 0.08 C123.67 0.08 127.53 0.08 131.4 0.08 C158.78 0.09 186.15 0.11 213.52 0.13 C240.11 0.16 266.7 0.18 293.29 0.2 C294.11 0.2 294.93 0.2 295.77 0.2 C304.01 0.2 312.24 0.2 320.48 0.21 C337.25 0.22 354.03 0.22 370.8 0.23 C371.96 0.23 371.96 0.23 373.14 0.23 C424.61 0.26 476.08 0.31 527.56 0.36 C527.56 24.78 527.56 49.2 527.56 74.36 C520.73 74.35 513.9 74.34 506.86 74.33 C461.74 74.28 416.62 74.22 371.5 74.19 C370.73 74.19 369.96 74.19 369.17 74.19 C352.42 74.18 335.68 74.17 318.94 74.16 C310.73 74.15 302.52 74.15 294.3 74.14 C293.49 74.14 292.67 74.14 291.83 74.14 C265.36 74.12 238.89 74.09 212.43 74.06 C185.22 74.02 158.01 73.99 130.81 73.99 C126.96 73.98 123.12 73.98 119.27 73.98 C118.51 73.98 117.76 73.98 116.98 73.98 C104.81 73.98 92.64 73.96 80.48 73.93 C68.24 73.91 55.99 73.9 43.75 73.91 C37.12 73.91 30.49 73.91 23.87 73.88 C17.79 73.86 11.72 73.86 5.64 73.88 C3.45 73.88 1.26 73.87 -0.93 73.86 C-19.4 73.76 -40.51 75.03 -54.62 88.52 C-55.52 89.43 -55.52 89.43 -56.44 90.36 C-57.11 91 -57.77 91.64 -58.45 92.29 C-61.88 95.5 -61.88 95.5 -64.44 99.36 C-65.1 99.36 -65.76 99.36 -66.44 99.36 C-67.31 90.64 -67.62 82 -67.65 73.24 C-67.65 71.94 -67.66 70.63 -67.66 69.29 C-67.67 66.56 -67.68 63.83 -67.68 61.1 C-67.69 57.6 -67.71 54.11 -67.74 50.62 C-67.76 47.26 -67.77 43.91 -67.77 40.55 C-67.78 39.3 -67.8 38.05 -67.81 36.77 C-67.81 35.61 -67.8 34.44 -67.8 33.25 C-67.8 32.23 -67.81 31.21 -67.81 30.16 C-67.38 26.89 -66.38 25.01 -64.44 22.36 C-63.12 21.68 -61.79 21.01 -60.44 20.36 C-60.16 19.75 -59.88 19.14 -59.59 18.51 C-55.15 10.19 -41.5 5.3 -33.02 2.58 C-22.09 -0.37 -11.24 -0.05 0 0 Z " fill="#DD2119" transform="translate(672.4434356689453,1425.6392364501953)"/>
<path d="M0 0 C185.61 0 185.61 0 211.96 25.83 C230.29 44.53 237.65 69.79 238.38 95.5 C237.66 119.84 231.07 142.36 215 161 C214.46 161.69 213.92 162.37 213.36 163.08 C198.74 181.11 176.29 188.83 154.02 191.61 C152.68 191.74 151.34 191.87 150 192 C149.13 192.08 148.27 192.17 147.38 192.25 C138.08 193.06 128.86 193.13 119.54 193.1 C118.09 193.1 116.63 193.1 115.17 193.09 C109.85 193.09 104.52 193.08 99.19 193.06 C87.25 193.04 75.3 193.02 63 193 C63 231.28 63 269.56 63 309 C56.89 309.61 51.31 310.13 45.25 310.13 C44.56 310.13 43.86 310.13 43.15 310.14 C41.69 310.14 40.22 310.13 38.76 310.13 C36.6 310.13 34.43 310.13 32.27 310.14 C21.45 310.13 10.84 309.57 0 309 C0 207.03 0 105.06 0 0 Z M63 54 C63 82.05 63 110.1 63 139 C77.32 139.06 77.32 139.06 91.94 139.12 C96.4 139.15 96.4 139.15 100.96 139.18 C133.66 139.93 133.66 139.93 160.98 124.05 C170.73 113.49 171.69 103.25 171.17 89.39 C170.42 78.93 164.37 70.72 156.68 63.96 C146.75 56.45 135.35 53.86 123.05 53.89 C122.06 53.89 122.06 53.89 121.04 53.89 C118.91 53.89 116.79 53.89 114.66 53.9 C113.35 53.9 112.04 53.9 110.69 53.91 C105.81 53.91 100.94 53.92 96.06 53.94 C85.15 53.96 74.24 53.98 63 54 Z " fill="#DD2118" transform="translate(254,736)"/>
<path d="M0 0 C2.26 -0 4.51 -0 6.77 -0.01 C12.92 -0.01 19.07 -0 25.22 0.01 C31.18 0.02 37.15 0.01 43.11 0.01 C55.3 0.01 67.5 0.02 79.69 0.03 C91.74 0.04 103.8 0.05 115.86 0.05 C116.62 0.05 117.37 0.05 118.14 0.05 C121.96 0.05 125.78 0.05 129.59 0.05 C156.59 0.06 183.58 0.07 210.57 0.09 C236.79 0.11 263 0.12 289.22 0.13 C290.02 0.13 290.83 0.13 291.67 0.13 C299.79 0.13 307.91 0.14 316.04 0.14 C332.59 0.14 349.13 0.15 365.68 0.16 C366.82 0.16 366.82 0.16 367.98 0.16 C418.73 0.18 469.48 0.21 520.22 0.24 C520.22 8.82 520.22 17.4 520.22 26.24 C516.01 26.25 516.01 26.25 511.72 26.25 C462.62 26.31 413.51 26.37 364.41 26.44 C363.64 26.44 362.87 26.44 362.08 26.45 C345.36 26.47 328.65 26.5 311.93 26.52 C303.74 26.53 295.54 26.55 287.34 26.56 C286.12 26.56 286.12 26.56 284.87 26.56 C258.44 26.6 232.02 26.64 205.59 26.67 C178.43 26.7 151.27 26.73 124.11 26.78 C120.27 26.79 116.43 26.79 112.59 26.8 C111.83 26.8 111.08 26.8 110.3 26.8 C98.15 26.82 86 26.84 73.85 26.85 C61.63 26.86 49.41 26.87 37.19 26.9 C30.57 26.91 23.95 26.92 17.33 26.92 C11.27 26.93 5.2 26.94 -0.86 26.95 C-3.05 26.96 -5.24 26.96 -7.43 26.96 C-35.33 26.46 -35.33 26.46 -59.78 38.24 C-60.82 39.88 -61.84 41.54 -62.78 43.24 C-65.72 44.22 -67.6 44.36 -70.67 44.34 C-72.07 44.33 -72.07 44.33 -73.51 44.33 C-74.97 44.32 -74.97 44.32 -76.47 44.3 C-77.95 44.3 -77.95 44.3 -79.46 44.29 C-81.9 44.28 -84.34 44.26 -86.78 44.24 C-87.16 43.15 -87.54 42.06 -87.94 40.94 C-90.1 35.92 -93.63 34.71 -98.46 32.53 C-110.26 27.96 -122.26 27.09 -134.8 27.1 C-136.22 27.1 -136.22 27.1 -137.68 27.09 C-140.84 27.08 -144.01 27.08 -147.17 27.08 C-149.47 27.08 -151.77 27.07 -154.07 27.07 C-160.37 27.05 -166.67 27.05 -172.98 27.04 C-179.08 27.03 -185.18 27.02 -191.29 27.01 C-203.77 26.99 -216.25 26.97 -228.73 26.95 C-241.08 26.93 -253.43 26.91 -265.78 26.89 C-266.55 26.89 -267.32 26.89 -268.11 26.89 C-272.02 26.88 -275.92 26.88 -279.82 26.87 C-307.46 26.82 -335.1 26.78 -362.73 26.74 C-389.57 26.7 -416.42 26.66 -443.26 26.61 C-444.09 26.61 -444.92 26.61 -445.77 26.61 C-454.08 26.6 -462.4 26.58 -470.71 26.57 C-487.64 26.54 -504.58 26.51 -521.51 26.48 C-522.29 26.48 -523.07 26.48 -523.87 26.48 C-575.84 26.4 -627.81 26.32 -679.78 26.24 C-679.78 18.32 -679.78 10.4 -679.78 2.24 C-621.04 2.11 -562.31 1.98 -503.58 1.86 C-496.59 1.84 -489.61 1.83 -482.62 1.81 C-481.58 1.81 -481.58 1.81 -480.52 1.81 C-458.2 1.76 -435.88 1.71 -413.56 1.66 C-389.86 1.61 -366.17 1.56 -342.48 1.51 C-329.61 1.48 -316.73 1.45 -303.86 1.43 C-298.92 1.41 -293.98 1.4 -289.03 1.39 C-287.83 1.39 -286.62 1.39 -285.38 1.38 C-272.48 1.36 -259.59 1.33 -246.69 1.31 C-245.58 1.31 -244.47 1.31 -243.32 1.3 C-238.91 1.3 -234.49 1.29 -230.08 1.28 C-217.49 1.26 -204.9 1.23 -192.31 1.19 C-184.58 1.16 -176.85 1.14 -169.12 1.12 C-164.73 1.11 -160.34 1.1 -155.95 1.08 C-101.16 0.8 -101.16 0.8 -79.9 12.95 C-76.18 14.49 -74.6 14.4 -70.78 13.24 C-68.62 12.2 -66.5 11.09 -64.4 9.93 C-44.71 -0.38 -21.68 -0.06 0 0 Z " fill="#DC2118" transform="translate(679.7789611816406,1383.7594909667969)"/>
<path d="M0 0 C72.27 0 144.54 0 219 0 C219 17.82 219 35.64 219 54 C192.27 54 165.54 54 138 54 C138 139.47 138 224.94 138 313 C135.05 313.98 133.12 314.13 130.04 314.15 C128.53 314.15 128.53 314.15 126.99 314.16 C125.36 314.17 125.36 314.17 123.69 314.17 C122.01 314.17 122.01 314.17 120.3 314.18 C117.94 314.18 115.57 314.19 113.2 314.19 C109.58 314.19 105.96 314.21 102.33 314.22 C100.04 314.23 97.74 314.23 95.44 314.23 C94.36 314.24 93.27 314.24 92.15 314.25 C91.14 314.25 90.13 314.25 89.09 314.24 C87.76 314.25 87.76 314.25 86.4 314.25 C84 314 84 314 80 312 C80 226.86 80 141.72 80 54 C53.6 54 27.2 54 0 54 C0 36.18 0 18.36 0 0 Z " fill="#DE2118" transform="translate(961,732)"/>
<path d="M0 0 C72.6 0 145.2 0 220 0 C220 17.82 220 35.64 220 54 C193.27 54 166.54 54 139 54 C139 139.47 139 224.94 139 313 C120.19 313 101.38 313 82 313 C82 227.53 82 142.06 82 54 C54.94 54 27.88 54 0 54 C0 36.18 0 18.36 0 0 Z " fill="#DD2218" transform="translate(498,736)"/>
<path d="M0 0 C0.99 0.5 0.99 0.5 2 1 C1.52 15.24 -0.62 29.19 -2.75 43.26 C-3.12 45.79 -3.5 48.31 -3.87 50.83 C-4.75 56.77 -5.64 62.7 -6.53 68.64 C-7.54 75.35 -8.54 82.06 -9.53 88.77 C-10.93 98.14 -12.32 107.51 -13.73 116.87 C-14.06 119.07 -14.38 121.26 -14.71 123.46 C-15.34 127.68 -15.97 131.9 -16.68 136.1 C-17.81 142.81 -18.25 149.2 -18 156 C-17.34 156 -16.67 156 -15.99 155.99 C-9.03 155.97 -2.07 155.96 4.89 155.95 C7.49 155.94 10.08 155.93 12.67 155.92 C16.41 155.91 20.15 155.91 23.89 155.9 C25.04 155.9 26.19 155.89 27.37 155.89 C42.46 155.89 42.46 155.89 48 157 C48.33 157.66 48.66 158.32 49 159 C47.76 162.72 46.74 163.03 43.44 165 C38.63 167.96 33.95 171.04 29.31 174.25 C28.29 174.96 28.29 174.96 27.24 175.68 C25.84 176.65 24.44 177.62 23.04 178.59 C13.33 185.31 3.59 191.98 -6.16 198.63 C-7.76 199.72 -9.36 200.81 -10.96 201.9 C-11.97 202.59 -12.98 203.28 -14.02 203.98 C-14.91 204.59 -15.8 205.2 -16.71 205.82 C-20 208 -20 208 -22.78 209.08 C-26.32 210.7 -28.44 212.04 -31 215 C-33.11 221.57 -32.39 228.91 -32.26 235.71 C-32.26 237.76 -32.26 239.82 -32.27 241.87 C-32.28 247.27 -32.23 252.67 -32.16 258.07 C-32.1 263.54 -32.1 269.02 -32.09 274.49 C-32.09 280.66 -32.08 286.82 -32.02 292.98 C-32 294.39 -32 294.39 -31.99 295.83 C-31.98 297.57 -31.96 299.32 -31.93 301.06 C-31.89 306.45 -32.32 311.65 -33 317 C-40.99 313.17 -46.27 305.57 -51.71 298.79 C-53.9 296.12 -56.17 293.55 -58.5 291 C-61.58 287.63 -64.51 284.18 -67.38 280.62 C-72.32 274.5 -77.63 268.75 -83 263 C-86.59 263.67 -89.22 265.17 -92.33 267.06 C-93.37 267.69 -94.41 268.32 -95.48 268.96 C-96.58 269.63 -97.68 270.31 -98.81 271 C-99.96 271.7 -101.11 272.39 -102.26 273.09 C-104.51 274.45 -106.77 275.82 -109.02 277.19 C-112.46 279.28 -115.92 281.36 -119.38 283.44 C-119.93 283.77 -120.49 284.11 -121.07 284.45 C-127.24 288.15 -133.43 291.83 -139.62 295.5 C-140.2 295.84 -140.77 296.18 -141.35 296.53 C-148.12 300.54 -154.9 304.53 -161.7 308.5 C-162.34 308.87 -162.98 309.24 -163.63 309.63 C-166.7 311.41 -169.76 313.2 -172.83 314.98 C-179.43 318.83 -185.92 322.8 -192.28 327.03 C-196.44 329.77 -199.95 332 -205 332 C-203.37 326.36 -203.37 326.36 -201.54 324.59 C-199.67 322.66 -199.08 320.97 -198.2 318.45 C-196.04 312.81 -193.12 307.94 -189.88 302.88 C-189.02 301.51 -189.02 301.51 -188.14 300.11 C-186.98 298.27 -185.81 296.43 -184.65 294.59 C-182.33 290.95 -180.04 287.29 -177.75 283.62 C-177.34 282.97 -176.93 282.32 -176.51 281.65 C-173.58 276.96 -170.71 272.23 -167.88 267.48 C-164.94 262.56 -161.98 257.66 -159.01 252.77 C-157.15 249.73 -155.31 246.69 -153.48 243.64 C-150.12 238.05 -146.73 232.54 -143.02 227.17 C-137.06 219.14 -137.06 219.14 -135.25 209.74 C-136.82 206.46 -138.78 203.88 -141 201 C-142.63 198.28 -144.12 195.48 -145.62 192.69 C-146.48 191.16 -147.33 189.63 -148.19 188.11 C-151.42 182.28 -154.53 176.4 -157.62 170.5 C-158.42 168.99 -158.42 168.99 -159.24 167.44 C-159.73 166.5 -160.22 165.56 -160.73 164.59 C-161.39 163.34 -161.39 163.34 -162.06 162.05 C-163 160 -163 160 -163 158 C-158.22 157.24 -153.61 156.86 -148.78 156.79 C-148.1 156.78 -147.41 156.77 -146.71 156.76 C-144.47 156.73 -142.24 156.71 -140 156.68 C-138.44 156.66 -136.89 156.64 -135.33 156.62 C-131.24 156.57 -127.16 156.52 -123.07 156.47 C-118.89 156.42 -114.72 156.36 -110.54 156.31 C-102.36 156.2 -94.18 156.1 -86 156 C-85.7 155.07 -85.39 154.13 -85.08 153.17 C-84.02 150.07 -82.74 147.39 -81.17 144.52 C-80.62 143.5 -80.07 142.48 -79.5 141.43 C-78.92 140.38 -78.34 139.33 -77.75 138.25 C-77.19 137.22 -76.63 136.18 -76.05 135.12 C-73.43 130.32 -70.77 125.57 -67.93 120.9 C-64.85 115.83 -62.14 110.6 -59.44 105.31 C-55.31 97.31 -51.04 89.43 -46.56 81.62 C-42.01 73.68 -37.68 65.65 -33.5 57.5 C-29.14 49.01 -24.64 40.62 -19.94 32.31 C-19.4 31.36 -18.87 30.41 -18.31 29.43 C-12.81 19.78 -12.81 19.78 -10 16 C-9.34 16 -8.68 16 -8 16 C-7.86 14.68 -7.86 14.68 -7.72 13.34 C-6.92 9.64 -5.68 7.64 -3.44 4.62 C-2.8 3.75 -2.16 2.88 -1.5 1.98 C-1 1.32 -0.51 0.67 0 0 Z " fill="#EEEE04" transform="translate(902,575)"/>
<path d="M0 0 C13.17 2.63 25.32 14.5 35.31 23.06 C36.37 23.97 36.37 23.97 37.45 24.89 C56.7 41.63 66.74 59.19 68.6 84.76 C69.51 99.38 69.36 113.99 68.88 128.62 C68.85 129.36 68.83 130.1 68.8 130.86 C68.3 146.59 67.48 162.29 66.18 177.98 C66.09 179.07 66.01 180.17 65.92 181.29 C65.78 182.78 65.78 182.78 65.64 184.3 C65.57 185.17 65.49 186.03 65.41 186.92 C65 189 65 189 63 191 C60.1 191.39 57.27 191.66 54.36 191.85 C53.48 191.92 52.6 191.98 51.69 192.04 C49.81 192.18 47.94 192.31 46.06 192.43 C43.26 192.62 40.47 192.82 37.68 193.03 C35.84 193.16 34 193.29 32.17 193.41 C31.36 193.47 30.56 193.53 29.73 193.59 C19.79 194.23 10.02 194 0 194 C0 129.98 0 65.96 0 0 Z " fill="#DD2119" transform="translate(805,855)"/>
<path d="M0 0 C0.99 0.5 0.99 0.5 2 1 C1.52 15.24 -0.62 29.19 -2.75 43.26 C-3.12 45.79 -3.5 48.31 -3.87 50.83 C-4.75 56.77 -5.64 62.7 -6.53 68.64 C-7.54 75.35 -8.54 82.06 -9.53 88.77 C-10.93 98.14 -12.32 107.51 -13.73 116.87 C-14.06 119.07 -14.38 121.26 -14.71 123.46 C-15.34 127.68 -15.97 131.9 -16.68 136.1 C-17.81 142.81 -18.25 149.2 -18 156 C-17.34 156 -16.67 156 -15.99 155.99 C-9.03 155.97 -2.07 155.96 4.89 155.95 C7.49 155.94 10.08 155.93 12.67 155.92 C16.41 155.91 20.15 155.91 23.89 155.9 C25.04 155.9 26.19 155.89 27.37 155.89 C42.46 155.89 42.46 155.89 48 157 C48.33 157.66 48.66 158.32 49 159 C47.76 162.72 46.74 163.03 43.44 165 C38.63 167.96 33.95 171.04 29.31 174.25 C28.63 174.72 27.94 175.2 27.24 175.68 C25.84 176.65 24.44 177.62 23.04 178.59 C13.33 185.31 3.59 191.98 -6.16 198.63 C-7.76 199.72 -9.36 200.81 -10.96 201.9 C-12.98 203.27 -15 204.64 -17.03 206 C-19.03 207.34 -21 208.71 -22.96 210.11 C-29.96 214.93 -29.96 214.93 -34.47 215.24 C-39.6 213.44 -44.55 211.36 -49.5 209.12 C-51.51 208.23 -53.52 207.34 -55.53 206.45 C-56.47 206.02 -57.41 205.6 -58.38 205.17 C-61.57 203.74 -64.78 202.37 -68 201 C-68 200.34 -68 199.68 -68 199 C-56 193.39 -43.5 189.3 -30.95 185.11 C-24.7 183.02 -18.46 180.91 -12.22 178.81 C-10.99 178.39 -9.76 177.98 -8.5 177.56 C1.77 174.09 12.02 170.55 22.25 166.94 C23.3 166.57 23.3 166.57 24.37 166.19 C32.33 163.45 32.33 163.45 40 160 C32.54 159.63 25.08 159.33 17.62 159.09 C14.15 158.98 10.68 158.85 7.22 158.67 C-10.06 157.81 -23.75 158.47 -38.8 167.66 C-41.82 169.5 -44.93 171.18 -48.03 172.88 C-49.99 173.96 -51.92 175.07 -53.85 176.19 C-54.89 176.79 -55.93 177.38 -57 178 C-57.74 178.43 -58.48 178.87 -59.25 179.31 C-61 180 -61 180 -64 179 C-54.32 151.3 -44.56 123.63 -34.5 96.06 C-34.08 94.9 -33.66 93.75 -33.22 92.55 C-32.8 91.41 -32.38 90.26 -31.95 89.08 C-31.13 86.83 -30.31 84.58 -29.49 82.34 C-29.1 81.26 -28.71 80.18 -28.3 79.07 C-23.8 66.73 -19.37 54.37 -15.04 41.97 C-14.05 39.13 -13.03 36.3 -12.01 33.46 C-11.44 31.85 -10.88 30.24 -10.31 28.62 C-10.07 27.96 -9.82 27.29 -9.57 26.61 C-8.36 23.07 -7.93 20.09 -8.07 16.4 C-8.19 12.03 -7.12 9.62 -4.56 6 C-3.92 5.07 -3.29 4.14 -2.63 3.19 C-1 1 -1 1 0 0 Z " fill="#B79C0D" transform="translate(902,575)"/>
<path d="M0 0 C6.84 15.42 13.27 30.97 19.47 46.65 C26.38 64.08 33.29 81.5 40.85 98.66 C41.28 99.64 41.71 100.61 42.15 101.61 C42.51 102.43 42.87 103.24 43.25 104.08 C44 106 44 106 44 108 C35.99 104.45 30.63 96.44 25.29 89.79 C23.1 87.12 20.83 84.55 18.5 82 C15.42 78.63 12.49 75.18 9.62 71.62 C4.68 65.5 -0.63 59.75 -6 54 C-9.59 54.67 -12.22 56.17 -15.33 58.06 C-16.37 58.69 -17.41 59.32 -18.48 59.96 C-19.58 60.63 -20.68 61.31 -21.81 62 C-22.96 62.7 -24.11 63.39 -25.26 64.09 C-27.51 65.45 -29.77 66.82 -32.02 68.19 C-35.46 70.28 -38.92 72.36 -42.38 74.44 C-43.21 74.94 -43.21 74.94 -44.07 75.45 C-50.24 79.15 -56.43 82.83 -62.62 86.5 C-63.2 86.84 -63.77 87.18 -64.35 87.53 C-71.12 91.54 -77.9 95.53 -84.7 99.5 C-85.66 100.05 -85.66 100.05 -86.63 100.63 C-89.7 102.41 -92.76 104.2 -95.83 105.98 C-102.43 109.83 -108.92 113.8 -115.28 118.03 C-119.44 120.77 -122.95 123 -128 123 C-127.5 119.56 -126.63 117.52 -123.92 115.29 C-122.27 114.17 -120.59 113.07 -118.9 112 C-112.19 107.37 -106.43 101.57 -100.72 95.78 C-100.06 95.12 -99.4 94.46 -98.73 93.78 C-96.65 91.69 -94.57 89.59 -92.5 87.5 C-89.76 84.74 -87.02 81.98 -84.28 79.22 C-83.67 78.6 -83.06 77.98 -82.43 77.34 C-79.44 74.33 -76.4 71.44 -73.18 68.68 C-68.16 64.34 -63.54 59.64 -58.88 54.94 C-57.92 53.98 -56.96 53.02 -56.01 52.06 C-53 49.04 -50 46.02 -47 43 C-43.52 39.49 -40.03 35.99 -36.54 32.49 C-35.16 31.1 -33.79 29.71 -32.41 28.32 C-27.97 23.87 -23.48 19.55 -18.69 15.47 C-16.07 13.19 -13.68 10.73 -11.25 8.25 C-3.18 0 -3.18 0 0 0 Z " fill="#B89B0C" transform="translate(825,784)"/>
<path d="M0 0 C3.65 0.72 6.69 2.21 10.01 3.85 C11.24 4.45 12.47 5.06 13.7 5.66 C14.67 6.14 14.67 6.14 15.67 6.63 C29.34 13.36 43.13 19.78 57.05 25.99 C63.87 29.04 70.56 32.18 77 36 C77 36.66 77 37.32 77 38 C70.51 40.45 64.01 42.89 57.51 45.32 C55.3 46.15 53.09 46.98 50.88 47.81 C47.71 49.01 44.53 50.2 41.36 51.38 C40.36 51.76 39.37 52.13 38.35 52.52 C37.43 52.86 36.51 53.2 35.56 53.55 C34.75 53.86 33.94 54.16 33.11 54.47 C31 55 31 55 28 54 C26.49 51.8 26.49 51.8 24.88 48.88 C24.28 47.79 23.68 46.7 23.06 45.58 C22.42 44.39 21.77 43.19 21.12 42 C20.46 40.79 19.8 39.57 19.13 38.36 C14.53 29.93 10.02 21.45 5.56 12.94 C5 11.87 4.44 10.8 3.86 9.7 C3.35 8.71 2.84 7.73 2.32 6.71 C1.87 5.85 1.42 4.98 0.96 4.09 C0 2 0 2 0 0 Z " fill="#B89B0C" transform="translate(739,733)"/>
<path d="M0 0 C0.66 0 1.32 0 2 0 C2.2 20.35 2.38 40.7 2.55 61.05 C2.62 70.5 2.7 79.95 2.8 89.39 C2.88 97.63 2.95 105.87 3.01 114.1 C3.04 118.46 3.08 122.82 3.13 127.18 C3.18 131.29 3.21 135.4 3.23 139.5 C3.24 141.01 3.26 142.51 3.28 144.02 C3.48 158.44 3.48 158.44 0 164 C-1.49 164.99 -1.49 164.99 -3 166 C-2.86 165.37 -2.72 164.74 -2.57 164.09 C-0.98 156.31 -0.69 148.82 -0.68 140.9 C-0.67 139.52 -0.66 138.14 -0.65 136.76 C-0.62 133.04 -0.61 129.33 -0.6 125.61 C-0.58 121.72 -0.55 117.83 -0.53 113.93 C-0.48 106.57 -0.44 99.21 -0.41 91.85 C-0.37 83.47 -0.32 75.08 -0.27 66.7 C-0.17 49.47 -0.08 32.23 0 15 C-0.66 15 -1.32 15 -2 15 C-2.29 15.6 -2.58 16.2 -2.88 16.81 C-4 19 -4 19 -6 22 C-6.66 22 -7.32 22 -8 22 C-6.31 14.02 -3.99 7.12 0 0 Z " fill="#DF7F7E" transform="translate(788,876)"/>
<path d="M0 0 C0.66 0.33 1.32 0.66 2 1 C3.16 4.48 3.12 7.18 3.11 10.86 C3.11 11.55 3.11 12.24 3.11 12.96 C3.11 15.25 3.11 17.54 3.1 19.82 C3.1 21.41 3.09 23 3.09 24.59 C3.09 28.76 3.08 32.94 3.07 37.12 C3.06 41.38 3.05 45.65 3.05 49.91 C3.04 58.27 3.02 66.64 3 75 C-2.71 74.31 -2.71 74.31 -5.34 71.5 C-6.01 70.49 -6.68 69.48 -7.38 68.44 C-8.06 67.43 -8.75 66.41 -9.46 65.37 C-9.97 64.59 -10.48 63.81 -11 63 C-8 63 -8 63 0 68 C0 45.56 0 23.12 0 0 Z " fill="#DE7C74" transform="translate(592,1450)"/>
<path d="M0 0 C1.46 -0.01 1.46 -0.01 2.95 -0.02 C4.54 -0.01 4.54 -0.01 6.15 -0.01 C7.23 -0.01 8.31 -0.01 9.42 -0.01 C11.71 -0.01 14 -0.01 16.28 -0 C19.79 0.01 23.3 -0 26.81 -0.01 C29.03 -0.01 31.25 -0.01 33.46 -0.01 C34.52 -0.01 35.57 -0.01 36.66 -0.02 C37.63 -0.01 38.61 -0.01 39.61 0 C40.47 0 41.33 0 42.22 0 C44.31 0.26 44.31 0.26 46.31 2.26 C40.36 3 34.57 3.41 28.58 3.39 C27.39 3.39 27.39 3.39 26.18 3.39 C24.52 3.4 22.86 3.39 21.2 3.39 C18.68 3.38 16.16 3.39 13.63 3.4 C12.01 3.39 10.39 3.39 8.77 3.39 C7.65 3.39 7.65 3.39 6.51 3.4 C2.01 3.38 -2.25 2.99 -6.69 2.26 C-4.2 -0.23 -3.44 0.01 0 0 Z " fill="#C93B33" transform="translate(323.693359375,785.7412109375)"/>
<path d="M0 0 C4.92 4.92 4.14 15.83 4.25 22.5 C3.93 41.07 3.93 41.07 0 45 C0 30.15 0 15.3 0 0 Z " fill="#CE544D" transform="translate(488,809)"/>
</svg>
